<svg width="10" height="10" viewBox="0 0 10 10" fill="none" xmlns="http://www.w3.org/2000/svg"><path d="M7.616 5.67v2.17c0 .125.007.253-.01.378l.017-.123c-.013.09-.037.176-.072.26l.047-.113a1.08 1.08 0 0 1-.133.228l.075-.097c-.054.07-.116.132-.185.187l.098-.076a1.096 1.096 0 0 1-.24.141l.12-.05a1.1 1.1 0 0 1-.275.075l.127-.017c-.112.014-.227.009-.34.009H1.73c-.116 0-.234.005-.35-.01l.123.016a1.092 1.092 0 0 1-.26-.072l.113.047a1.098 1.098 0 0 1-.228-.132l.097.074a1.105 1.105 0 0 1-.187-.185l.076.098a1.095 1.095 0 0 1-.141-.239l.05.119a1.09 1.09 0 0 1-.075-.275l.017.127C.95 8.098.956 7.983.956 7.87V2.756c0-.117-.005-.235.01-.35l-.016.122c.013-.09.037-.176.072-.26l-.048.113c.036-.081.08-.157.133-.228l-.074.097c.054-.07.116-.132.184-.187l-.097.076a1.04 1.04 0 0 1 .239-.14l-.119.049a1.09 1.09 0 0 1 .275-.074l-.127.016c.184-.022.376-.008.561-.008H3.9c.26 0 .48-.213.482-.475a.483.483 0 0 0-.475-.482H1.603c-.132 0-.261.01-.393.034-.151.027-.302.09-.436.163a1.464 1.464 0 0 0-.358.281A1.572 1.572 0 0 0 0 2.592V8.03c0 .106.013.208.027.314.02.154.082.304.15.442.067.135.166.26.271.367.293.296.7.444 1.112.444H7c.055 0 .11 0 .164-.007.095-.01.19-.021.283-.045.096-.026.188-.067.278-.107.138-.062.263-.16.374-.26.22-.201.385-.496.44-.789a2.03 2.03 0 0 0 .035-.388V5.677c0-.26-.213-.48-.475-.482a.483.483 0 0 0-.482.475zM5.315.956l1.189.002L8.5.959l.616.001c.26 0 .48-.213.482-.475a.483.483 0 0 0-.475-.482A44347.633 44347.633 0 0 1 5.937.001L5.321 0c-.26 0-.48.213-.481.475a.483.483 0 0 0 .475.481z" fill="#4970FF"/><path d="M9.594 4.283l.002-1.189.001-1.996.001-.616c0-.26-.213-.48-.475-.482a.483.483 0 0 0-.482.475v1.189L8.638 3.66l-.001.617c0 .26.213.48.475.481a.483.483 0 0 0 .481-.475z" fill="#4970FF"/><path d="M4.083 6.186l.491-.49 1.194-1.193 1.479-1.477L8.593 1.68l.795-.795.072-.071a.483.483 0 0 0-.004-.677.483.483 0 0 0-.676.004l-.491.49-1.194 1.193-1.478 1.477c-.45.448-.898.897-1.346 1.345l-.796.795-.071.071a.483.483 0 0 0 .003.676.483.483 0 0 0 .676-.003z" fill="#4970FF"/></svg>